<svg width="14" height="11" viewBox="0 0 14 11" fill="none" xmlns="http://www.w3.org/2000/svg">
<path d="M6.322 0.481999L4.408 7.442L3.77 4.832C4.60133 4.832 5.278 5.07367 5.8 5.557C6.322 6.04033 6.583 6.70733 6.583 7.558C6.583 8.38933 6.31233 9.066 5.771 9.588C5.249 10.0907 4.59167 10.342 3.799 10.342C2.987 10.342 2.31033 10.0907 1.769 9.588C1.247 9.066 0.986 8.38933 0.986 7.558C0.986 7.30667 1.00533 7.065 1.044 6.833C1.08267 6.58167 1.16 6.29167 1.276 5.963C1.392 5.63433 1.55633 5.19933 1.769 4.658L3.451 0.481999H6.322ZM13.166 0.481999L11.252 7.442L10.614 4.832C11.4453 4.832 12.122 5.07367 12.644 5.557C13.166 6.04033 13.427 6.70733 13.427 7.558C13.427 8.38933 13.1563 9.066 12.615 9.588C12.093 10.0907 11.4357 10.342 10.643 10.342C9.831 10.342 9.15433 10.0907 8.613 9.588C8.091 9.066 7.83 8.38933 7.83 7.558C7.83 7.30667 7.84933 7.065 7.888 6.833C7.92667 6.58167 8.004 6.29167 8.12 5.963C8.236 5.63433 8.40033 5.19933 8.613 4.658L10.295 0.481999H13.166Z" fill="#9D9AB1"/>
</svg>
