<?xml version="1.0" standalone="no"?>
<svg xmlns:xlink="http://www.w3.org/1999/xlink" id="wave" style="transform:rotate(0deg); transition: 0.3s" viewBox="0 0 1440 490" version="1.1" xmlns="http://www.w3.org/2000/svg"><defs><linearGradient id="sw-gradient-0" x1="0" x2="0" y1="1" y2="0"><stop stop-color="rgba(254, 253, 248, 1)" offset="0%"/><stop stop-color="rgba(254, 253, 248, 1)" offset="100%"/></linearGradient></defs><path style="transform:translate(0, 0px); opacity:1" fill="url(#sw-gradient-0)" d="M0,196L60,236.8C120,278,240,359,360,367.5C480,376,600,310,720,261.3C840,212,960,180,1080,187.8C1200,196,1320,245,1440,294C1560,343,1680,392,1800,408.3C1920,425,2040,408,2160,343C2280,278,2400,163,2520,138.8C2640,114,2760,180,2880,245C3000,310,3120,376,3240,351.2C3360,327,3480,212,3600,147C3720,82,3840,65,3960,81.7C4080,98,4200,147,4320,212.3C4440,278,4560,359,4680,383.8C4800,408,4920,376,5040,326.7C5160,278,5280,212,5400,196C5520,180,5640,212,5760,236.8C5880,261,6000,278,6120,253.2C6240,229,6360,163,6480,155.2C6600,147,6720,196,6840,204.2C6960,212,7080,180,7200,138.8C7320,98,7440,49,7560,24.5C7680,0,7800,0,7920,73.5C8040,147,8160,294,8280,326.7C8400,359,8520,278,8580,236.8L8640,196L8640,490L8580,490C8520,490,8400,490,8280,490C8160,490,8040,490,7920,490C7800,490,7680,490,7560,490C7440,490,7320,490,7200,490C7080,490,6960,490,6840,490C6720,490,6600,490,6480,490C6360,490,6240,490,6120,490C6000,490,5880,490,5760,490C5640,490,5520,490,5400,490C5280,490,5160,490,5040,490C4920,490,4800,490,4680,490C4560,490,4440,490,4320,490C4200,490,4080,490,3960,490C3840,490,3720,490,3600,490C3480,490,3360,490,3240,490C3120,490,3000,490,2880,490C2760,490,2640,490,2520,490C2400,490,2280,490,2160,490C2040,490,1920,490,1800,490C1680,490,1560,490,1440,490C1320,490,1200,490,1080,490C960,490,840,490,720,490C600,490,480,490,360,490C240,490,120,490,60,490L0,490Z"/></svg>