<?xml version="1.0" standalone="no"?>
<svg xmlns:xlink="http://www.w3.org/1999/xlink" id="wave" style="transform:rotate(0deg); transition: 0.3s" viewBox="0 0 1440 490" version="1.1" xmlns="http://www.w3.org/2000/svg"><defs><linearGradient id="sw-gradient-0" x1="0" x2="0" y1="1" y2="0"><stop stop-color="rgba(254, 253, 248, 1)" offset="0%"/><stop stop-color="rgba(254, 253, 248, 1)" offset="100%"/></linearGradient></defs><path style="transform:translate(0, 0px); opacity:1" fill="url(#sw-gradient-0)" d="M0,147L60,171.5C120,196,240,245,360,277.7C480,310,600,327,720,285.8C840,245,960,147,1080,147C1200,147,1320,245,1440,277.7C1560,310,1680,278,1800,269.5C1920,261,2040,278,2160,269.5C2280,261,2400,229,2520,228.7C2640,229,2760,261,2880,245C3000,229,3120,163,3240,138.8C3360,114,3480,131,3600,130.7C3720,131,3840,114,3960,114.3C4080,114,4200,131,4320,171.5C4440,212,4560,278,4680,253.2C4800,229,4920,114,5040,57.2C5160,0,5280,0,5400,65.3C5520,131,5640,261,5760,318.5C5880,376,6000,359,6120,326.7C6240,294,6360,245,6480,204.2C6600,163,6720,131,6840,130.7C6960,131,7080,163,7200,155.2C7320,147,7440,98,7560,65.3C7680,33,7800,16,7920,16.3C8040,16,8160,33,8280,40.8C8400,49,8520,49,8580,49L8640,49L8640,490L8580,490C8520,490,8400,490,8280,490C8160,490,8040,490,7920,490C7800,490,7680,490,7560,490C7440,490,7320,490,7200,490C7080,490,6960,490,6840,490C6720,490,6600,490,6480,490C6360,490,6240,490,6120,490C6000,490,5880,490,5760,490C5640,490,5520,490,5400,490C5280,490,5160,490,5040,490C4920,490,4800,490,4680,490C4560,490,4440,490,4320,490C4200,490,4080,490,3960,490C3840,490,3720,490,3600,490C3480,490,3360,490,3240,490C3120,490,3000,490,2880,490C2760,490,2640,490,2520,490C2400,490,2280,490,2160,490C2040,490,1920,490,1800,490C1680,490,1560,490,1440,490C1320,490,1200,490,1080,490C960,490,840,490,720,490C600,490,480,490,360,490C240,490,120,490,60,490L0,490Z"/></svg>