<svg width="67" height="67" viewBox="0 0 67 67" fill="none" xmlns="http://www.w3.org/2000/svg">
<g id="Group 2">
<g id="Rectangle 1" opacity="0.95" filter="url(#filter0_d_55_12)">
<rect x="7" y="4" width="55" height="55" rx="15" fill="#1E5248"/>
</g>
<path id="Star" d="M31.6381 12.9309C33.2075 11.3236 35.7925 11.3236 37.3619 12.9309L39.8472 15.4761C40.6114 16.2588 41.6629 16.6943 42.7567 16.6813L46.3138 16.6389C48.56 16.6121 50.3879 18.44 50.3611 20.6862L50.3187 24.2433C50.3057 25.3371 50.7412 26.3886 51.5239 27.1528L54.0691 29.6381C55.6764 31.2075 55.6764 33.7925 54.0691 35.3619L51.5239 37.8472C50.7412 38.6114 50.3057 39.6629 50.3187 40.7567L50.3611 44.3138C50.3879 46.56 48.56 48.3879 46.3138 48.3611L42.7567 48.3187C41.6629 48.3057 40.6114 48.7412 39.8472 49.5239L37.3619 52.0691C35.7925 53.6764 33.2075 53.6764 31.6381 52.0691L29.1528 49.5239C28.3886 48.7412 27.3371 48.3057 26.2433 48.3187L22.6862 48.3611C20.44 48.3879 18.6121 46.56 18.6389 44.3138L18.6813 40.7567C18.6943 39.6629 18.2588 38.6114 17.4761 37.8472L14.9309 35.3619C13.3236 33.7925 13.3236 31.2075 14.9309 29.6381L17.4761 27.1528C18.2588 26.3886 18.6943 25.3371 18.6813 24.2433L18.6389 20.6862C18.6121 18.44 20.44 16.6121 22.6862 16.6389L26.2433 16.6813C27.3371 16.6943 28.3886 16.2588 29.1528 15.4761L31.6381 12.9309Z" stroke="#B9E6CD" stroke-width="0.5"/>
<path id="Star_2" d="M39.5405 14.9841C41.5631 14.2767 43.7838 15.2888 44.5769 17.2793L45.7997 20.3483C46.1762 21.2933 46.8987 22.0594 47.82 22.4906L50.8195 23.8945C52.791 24.8173 53.6627 27.1472 52.7811 29.1374L51.5376 31.9446C51.1135 32.9019 51.0817 33.9873 51.449 34.9678L52.5285 37.8497C53.3041 39.9203 52.2527 42.2273 50.1812 43.0004L47.298 44.0764C46.317 44.4425 45.5187 45.1786 45.0745 46.1266L43.7717 48.9068C42.848 50.8779 40.5177 51.7486 38.5279 50.866L35.5005 49.5233C34.5706 49.1109 33.5185 49.0682 32.5583 49.404L29.4398 50.4947C27.4172 51.202 25.1965 50.19 24.4034 48.1994L23.1806 45.1304C22.804 44.1854 22.0816 43.4193 21.1603 42.9881L18.1608 41.5842C16.1893 40.6614 15.3175 38.3315 16.1992 36.3413L17.4427 33.5341C17.8667 32.5768 17.8986 31.4914 17.5313 30.5109L16.4518 27.629C15.6762 25.5584 16.7276 23.2514 18.7991 22.4783L21.6823 21.4023C22.6633 21.0362 23.4616 20.3001 23.9058 19.3521L25.2086 16.5719C26.1323 14.6008 28.4625 13.7302 30.4524 14.6127L33.4798 15.9554C34.4097 16.3678 35.4618 16.4105 36.422 16.0747L39.5405 14.9841Z" stroke="#B9E6CD" stroke-width="0.5"/>
<path id="Star_3" d="M40.9699 12.3079C42.4813 12.0827 43.989 12.7382 44.8551 13.9973L47.9911 18.5562C48.2417 18.9205 48.5508 19.2406 48.9061 19.5037L53.3528 22.7969C54.5809 23.7064 55.1834 25.2361 54.9056 26.7388L53.8994 32.1799C53.819 32.6146 53.8112 33.0597 53.8764 33.4969L54.6921 38.9699C54.9173 40.4813 54.2617 41.989 53.0027 42.8551L48.4438 45.9911C48.0795 46.2417 47.7594 46.5508 47.4963 46.9061L44.203 51.3528C43.2936 52.5809 41.7639 53.1834 40.2612 52.9056L34.8201 51.8994C34.3854 51.819 33.9403 51.8112 33.5031 51.8764L28.0301 52.6921C26.5187 52.9173 25.011 52.2617 24.1449 51.0027L21.0089 46.4438C20.7583 46.0795 20.4492 45.7594 20.0939 45.4963L15.6472 42.203C14.4191 41.2936 13.8166 39.7639 14.0944 38.2612L15.1006 32.8201C15.181 32.3854 15.1888 31.9403 15.1236 31.5031L14.3079 26.0301C14.0827 24.5187 14.7382 23.011 15.9973 22.1449L20.5562 19.0089C20.9205 18.7583 21.2406 18.4492 21.5037 18.0939L24.7969 13.6472C25.7064 12.4191 27.2361 11.8166 28.7388 12.0944L34.1799 13.1006C34.6146 13.181 35.0597 13.1888 35.4969 13.1236L40.9699 12.3079Z" stroke="#B9E6CD" stroke-width="0.5"/>
</g>
<defs>
<filter id="filter0_d_55_12" x="0" y="0" width="67" height="67" filterUnits="userSpaceOnUse" color-interpolation-filters="sRGB">
<feFlood flood-opacity="0" result="BackgroundImageFix"/>
<feColorMatrix in="SourceAlpha" type="matrix" values="0 0 0 0 0 0 0 0 0 0 0 0 0 0 0 0 0 0 127 0" result="hardAlpha"/>
<feOffset dx="-1" dy="2"/>
<feGaussianBlur stdDeviation="3"/>
<feComposite in2="hardAlpha" operator="out"/>
<feColorMatrix type="matrix" values="0 0 0 0 0 0 0 0 0 0 0 0 0 0 0 0 0 0 0.25 0"/>
<feBlend mode="normal" in2="BackgroundImageFix" result="effect1_dropShadow_55_12"/>
<feBlend mode="normal" in="SourceGraphic" in2="effect1_dropShadow_55_12" result="shape"/>
</filter>
</defs>
</svg>
