<svg width="132" height="26" viewBox="0 0 132 26" fill="none" xmlns="http://www.w3.org/2000/svg">
<circle cx="13" cy="13" r="12.5" stroke="black" stroke-opacity="0.69"/>
<path d="M10.9 8H15.1C16.7 8 18 9.4024 18 11.1284V15.6593C18 16.489 17.6945 17.2847 17.1506 17.8714C16.6068 18.4581 15.8691 18.7877 15.1 18.7877H10.9C9.3 18.7877 8 17.3853 8 15.6593V11.1284C8 10.2987 8.30553 9.50299 8.84939 8.9163C9.39325 8.3296 10.1309 8 10.9 8ZM10.8 9.07877C10.3226 9.07877 9.86477 9.28335 9.52721 9.64751C9.18964 10.0117 9 10.5056 9 11.0206V15.7671C9 16.8405 9.805 17.7089 10.8 17.7089H15.2C15.6774 17.7089 16.1352 17.5044 16.4728 17.1402C16.8104 16.776 17 16.2821 17 15.7671V11.0206C17 9.94718 16.195 9.07877 15.2 9.07877H10.8ZM15.625 9.88785C15.7908 9.88785 15.9497 9.95888 16.0669 10.0853C16.1842 10.2118 16.25 10.3833 16.25 10.5621C16.25 10.7409 16.1842 10.9124 16.0669 11.0388C15.9497 11.1653 15.7908 11.2363 15.625 11.2363C15.4592 11.2363 15.3003 11.1653 15.1831 11.0388C15.0658 10.9124 15 10.7409 15 10.5621C15 10.3833 15.0658 10.2118 15.1831 10.0853C15.3003 9.95888 15.4592 9.88785 15.625 9.88785ZM13 10.6969C13.663 10.6969 14.2989 10.9811 14.7678 11.4868C15.2366 11.9926 15.5 12.6786 15.5 13.3939C15.5 14.1091 15.2366 14.7951 14.7678 15.3009C14.2989 15.8066 13.663 16.0908 13 16.0908C12.337 16.0908 11.7011 15.8066 11.2322 15.3009C10.7634 14.7951 10.5 14.1091 10.5 13.3939C10.5 12.6786 10.7634 11.9926 11.2322 11.4868C11.7011 10.9811 12.337 10.6969 13 10.6969ZM13 11.7757C12.6022 11.7757 12.2206 11.9462 11.9393 12.2496C11.658 12.5531 11.5 12.9647 11.5 13.3939C11.5 13.823 11.658 14.2346 11.9393 14.5381C12.2206 14.8415 12.6022 15.012 13 15.012C13.3978 15.012 13.7794 14.8415 14.0607 14.5381C14.342 14.2346 14.5 13.823 14.5 13.3939C14.5 12.9647 14.342 12.5531 14.0607 12.2496C13.7794 11.9462 13.3978 11.7757 13 11.7757Z" fill="black"/>
<path fill-rule="evenodd" clip-rule="evenodd" d="M119 25C125.627 25 131 19.6274 131 13C131 6.37258 125.627 1 119 1C112.373 1 107 6.37258 107 13C107 19.6274 112.373 25 119 25ZM119 26C126.18 26 132 20.1797 132 13C132 5.8203 126.18 0 119 0C111.82 0 106 5.8203 106 13C106 20.1797 111.82 26 119 26Z" fill="black" fill-opacity="0.69"/>
<path d="M118.371 11.3565C118.843 10.8367 119.457 10.4966 120.171 10.4966C120.922 10.4966 121.641 10.8181 122.172 11.3903C122.702 11.9626 123 12.7387 123 13.548V17.7089H121.971V13.548C121.971 13.033 121.782 12.5391 121.444 12.1749C121.107 11.8108 120.649 11.6062 120.171 11.6062C119.694 11.6062 119.236 11.8108 118.899 12.1749C118.561 12.5391 118.371 13.033 118.371 13.548V17.7089H117.343V10.774H118.371V11.3565ZM114.771 9.66439C114.567 9.66439 114.371 9.57671 114.226 9.42065C114.081 9.26458 114 9.05291 114 8.83219C114 8.61148 114.081 8.39981 114.226 8.24374C114.371 8.08768 114.567 8 114.771 8C114.976 8 115.172 8.08768 115.317 8.24374C115.462 8.39981 115.543 8.61148 115.543 8.83219C115.543 9.05291 115.462 9.26458 115.317 9.42065C115.172 9.57671 114.976 9.66439 114.771 9.66439ZM114.257 10.774H115.286V17.7089H114.257V10.774Z" fill="black"/>
<circle cx="66" cy="13" r="12.5" stroke="black" stroke-opacity="0.69"/>
<path d="M69 7H67.0909C66.247 7 65.4377 7.31255 64.841 7.8689C64.2443 8.42525 63.9091 9.17982 63.9091 9.96662V11.7466H62V14.1199H63.9091V18.8665H66.4545V14.1199H68.3636L69 11.7466H66.4545V9.96662C66.4545 9.80926 66.5216 9.65835 66.6409 9.54708C66.7603 9.43581 66.9221 9.3733 67.0909 9.3733H69V7Z" stroke="black" stroke-width="1.5" stroke-linecap="round" stroke-linejoin="round"/>
</svg>
