<?xml version="1.0" standalone="no"?>
<svg xmlns:xlink="http://www.w3.org/1999/xlink" id="wave" style="transform:rotate(0deg); transition: 0.3s" viewBox="0 0 1440 490" version="1.1" xmlns="http://www.w3.org/2000/svg"><defs><linearGradient id="sw-gradient-0" x1="0" x2="0" y1="1" y2="0"><stop stop-color="rgba(185, 229, 205, 1)" offset="0%"/><stop stop-color="rgba(185, 229, 205, 1)" offset="100%"/></linearGradient></defs><path style="transform:translate(0, 0px); opacity:1" fill="url(#sw-gradient-0)" d="M0,294L60,261.3C120,229,240,163,360,163.3C480,163,600,229,720,269.5C840,310,960,327,1080,302.2C1200,278,1320,212,1440,220.5C1560,229,1680,310,1800,351.2C1920,392,2040,392,2160,367.5C2280,343,2400,294,2520,277.7C2640,261,2760,278,2880,294C3000,310,3120,327,3240,326.7C3360,327,3480,310,3600,261.3C3720,212,3840,131,3960,81.7C4080,33,4200,16,4320,57.2C4440,98,4560,196,4680,245C4800,294,4920,294,5040,318.5C5160,343,5280,392,5400,351.2C5520,310,5640,180,5760,179.7C5880,180,6000,310,6120,351.2C6240,392,6360,343,6480,310.3C6600,278,6720,261,6840,269.5C6960,278,7080,310,7200,277.7C7320,245,7440,147,7560,106.2C7680,65,7800,82,7920,122.5C8040,163,8160,229,8280,285.8C8400,343,8520,392,8580,416.5L8640,441L8640,490L8580,490C8520,490,8400,490,8280,490C8160,490,8040,490,7920,490C7800,490,7680,490,7560,490C7440,490,7320,490,7200,490C7080,490,6960,490,6840,490C6720,490,6600,490,6480,490C6360,490,6240,490,6120,490C6000,490,5880,490,5760,490C5640,490,5520,490,5400,490C5280,490,5160,490,5040,490C4920,490,4800,490,4680,490C4560,490,4440,490,4320,490C4200,490,4080,490,3960,490C3840,490,3720,490,3600,490C3480,490,3360,490,3240,490C3120,490,3000,490,2880,490C2760,490,2640,490,2520,490C2400,490,2280,490,2160,490C2040,490,1920,490,1800,490C1680,490,1560,490,1440,490C1320,490,1200,490,1080,490C960,490,840,490,720,490C600,490,480,490,360,490C240,490,120,490,60,490L0,490Z"/></svg>