<svg xmlns="http://www.w3.org/2000/svg" xmlns:xlink="http://www.w3.org/1999/xlink" width="1080" zoomAndPan="magnify" viewBox="0 0 810 809.999993" height="1080" preserveAspectRatio="xMidYMid meet" version="1.0"><defs><clipPath id="dd19da8735"><path d="M 0 345.464844 L 810 345.464844 L 810 475.964844 L 0 475.964844 Z M 0 345.464844 " clip-rule="nonzero"/></clipPath><clipPath id="014cb09a7a"><path d="M 0 350.09375 L 33.75 363.894531 C 67.5 377.695312 135 405.292969 202.5 423.710938 C 270 441.90625 337.5 451.480469 405 428.273438 C 472.5 405.292969 540 350.09375 607.5 350.09375 C 675 350.09375 742.5 405.292969 810 423.710938 C 877.5 441.90625 945 423.882812 1012.5 419.09375 C 1080 414.304688 1147.5 423.882812 1215 419.09375 C 1282.5 414.304688 1350 396.28125 1417.5 396.113281 C 1485 396.28125 1552.5 414.304688 1620 405.292969 C 1687.5 396.28125 1755 359.105469 1822.5 345.476562 C 1890 331.503906 1957.5 341.082031 2025 340.914062 C 2092.5 341.082031 2160 331.503906 2227.5 331.675781 C 2295 331.503906 2362.5 341.082031 2430 363.894531 C 2497.5 386.707031 2565 423.882812 2632.5 409.914062 C 2700 396.28125 2767.5 331.503906 2835 299.511719 C 2902.5 267.292969 2970 267.292969 3037.5 304.074219 C 3105 341.082031 3172.5 414.304688 3240 446.695312 C 3307.5 479.082031 3375 469.503906 3442.5 451.3125 C 3510 432.894531 3577.5 405.292969 3645 382.3125 C 3712.5 359.105469 3780 341.082031 3847.5 340.914062 C 3915 341.082031 3982.5 359.105469 4050 354.710938 C 4117.5 350.09375 4185 322.492188 4252.5 304.074219 C 4320 285.882812 4387.5 276.304688 4455 276.476562 C 4522.5 276.304688 4590 285.882812 4657.5 290.273438 C 4725 294.894531 4792.5 294.894531 4826.25 294.894531 L 4860 294.894531 L 4860 543.292969 L 4826.25 543.292969 C 4792.5 543.292969 4725 543.292969 4657.5 543.292969 C 4590 543.292969 4522.5 543.292969 4455 543.292969 C 4387.5 543.292969 4320 543.292969 4252.5 543.292969 C 4185 543.292969 4117.5 543.292969 4050 543.292969 C 3982.5 543.292969 3915 543.292969 3847.5 543.292969 C 3780 543.292969 3712.5 543.292969 3645 543.292969 C 3577.5 543.292969 3510 543.292969 3442.5 543.292969 C 3375 543.292969 3307.5 543.292969 3240 543.292969 C 3172.5 543.292969 3105 543.292969 3037.5 543.292969 C 2970 543.292969 2902.5 543.292969 2835 543.292969 C 2767.5 543.292969 2700 543.292969 2632.5 543.292969 C 2565 543.292969 2497.5 543.292969 2430 543.292969 C 2362.5 543.292969 2295 543.292969 2227.5 543.292969 C 2160 543.292969 2092.5 543.292969 2025 543.292969 C 1957.5 543.292969 1890 543.292969 1822.5 543.292969 C 1755 543.292969 1687.5 543.292969 1620 543.292969 C 1552.5 543.292969 1485 543.292969 1417.5 543.292969 C 1350 543.292969 1282.5 543.292969 1215 543.292969 C 1147.5 543.292969 1080 543.292969 1012.5 543.292969 C 945 543.292969 877.5 543.292969 810 543.292969 C 742.5 543.292969 675 543.292969 607.5 543.292969 C 540 543.292969 472.5 543.292969 405 543.292969 C 337.5 543.292969 270 543.292969 202.5 543.292969 C 135 543.292969 67.5 543.292969 33.75 543.292969 L 0 543.292969 Z M 0 350.09375 " clip-rule="nonzero"/></clipPath></defs><g clip-path="url(#dd19da8735)"><g clip-path="url(#014cb09a7a)"><path fill="#fefdf8" d="M 0 345.464844 L 0 475.964844 L 810 475.964844 L 810 345.464844 Z M 0 345.464844 " fill-opacity="1" fill-rule="nonzero"/></g></g></svg>